<?xml version="1.0" encoding="UTF-8" standalone="no"?>
<!-- Created with Inkscape (http://www.inkscape.org/) -->

<svg
   xmlns:dc="http://purl.org/dc/elements/1.1/"
   xmlns:cc="http://creativecommons.org/ns#"
   xmlns:rdf="http://www.w3.org/1999/02/22-rdf-syntax-ns#"
   xmlns:svg="http://www.w3.org/2000/svg"
   xmlns="http://www.w3.org/2000/svg"
   xmlns:sodipodi="http://sodipodi.sourceforge.net/DTD/sodipodi-0.dtd"
   xmlns:inkscape="http://www.inkscape.org/namespaces/inkscape"
   width="30mm"
   height="8mm"
   viewBox="0 0 30 8"
   version="1.1"
   id="svg8"
   inkscape:version="0.92.1 r15371"
   sodipodi:docname="logo.svg">
  <defs
     id="defs2" />
  <sodipodi:namedview
     id="base"
     pagecolor="#ffffff"
     bordercolor="#666666"
     borderopacity="1.0"
     inkscape:pageopacity="0.0"
     inkscape:pageshadow="2"
     inkscape:zoom="2.8"
     inkscape:cx="117.77773"
     inkscape:cy="45.960218"
     inkscape:document-units="mm"
     inkscape:current-layer="layer1"
     showgrid="false"
     inkscape:window-width="1366"
     inkscape:window-height="745"
     inkscape:window-x="-8"
     inkscape:window-y="-8"
     inkscape:window-maximized="1" />
  <metadata
     id="metadata5">
    <rdf:RDF>
      <cc:Work
         rdf:about="">
        <dc:format>image/svg+xml</dc:format>
        <dc:type
           rdf:resource="http://purl.org/dc/dcmitype/StillImage" />
        <dc:title></dc:title>
      </cc:Work>
    </rdf:RDF>
  </metadata>
  <g
     inkscape:label="Camada 1"
     inkscape:groupmode="layer"
     id="layer1"
     transform="translate(0,-289)">
    <path
       style="fill:#009ee3;fill-opacity:1;stroke-width:0.12592301"
       d="m 0.37794913,292.87002 v -3.54519 H 2.0060162 3.634088 v 0.44315 0.44315 H 2.4443465 1.2546002 v 1.07621 1.07622 H 2.4443465 3.634088 v 0.44315 0.44314 H 2.4443465 1.2546002 v 1.58267 1.58267 H 0.81627463 0.37794913 Z m 4.38326327,1.26612 v -2.27904 h 0.4383254 0.4383257 v 2.27904 2.27905 H 5.1995378 4.7612124 Z m 2.1290094,0 v -2.27904 h 0.4383311 c 0.3916737,0 0.4383247,0.036 0.4383247,0.3386 v 0.33861 l 0.2817798,-0.26686 c 0.1549792,-0.14678 0.436759,-0.32622 0.6261815,-0.39878 0.3346705,-0.12819 0.3443971,-0.11948 0.3443971,0.30811 0,0.30463 -0.057182,0.44 -0.1858772,0.44 -0.1022301,0 -0.3699237,0.16613 -0.594871,0.36916 l -0.4089929,0.36915 -0.04179,1.53006 -0.04179,1.53004 H 7.3180706 6.89023 Z m 4.1211792,1.98434 c -1.2101004,-0.64611 -1.6445204,-2.21512 -0.946656,-3.41904 0.764058,-1.3181 2.443264,-1.60901 3.601283,-0.62387 l 0.382406,0.3253 -1.403233,1.42271 c -0.807459,0.81866 -1.366821,1.48228 -1.317467,1.56302 0.04719,0.0772 0.388082,0.1403 0.75757,0.1403 0.543069,0 0.746953,-0.0639 1.064029,-0.33367 0.33609,-0.28591 0.436058,-0.31349 0.698407,-0.19264 0.390051,0.17967 0.384665,0.27632 -0.03824,0.68583 -0.777705,0.75311 -1.878503,0.92309 -2.798114,0.43206 z m 1.764917,-3.65916 c 0,-0.0537 -0.282608,-0.0978 -0.628018,-0.0978 -0.836451,0 -1.480165,0.54965 -1.587029,1.35514 -0.142791,1.07631 0.0038,1.06437 1.155623,-0.0941 0.582683,-0.58604 1.059424,-1.10951 1.059424,-1.16327 z m 2.629957,0.4087 v -3.54519 h 1.878541 1.878541 v 0.44315 0.44315 h -1.440216 -1.44021 v 1.07621 1.07622 h 1.44021 1.440216 v 0.44315 0.44314 h -1.440216 -1.44021 v 1.13953 1.13952 h 1.44021 1.440216 v 0.44314 0.44315 h -1.878541 -1.878541 z m 4.884206,0 v -3.54519 l 0.907962,4.8e-4 c 1.578656,7.6e-4 2.400064,0.4171 2.864191,1.45011 0.44153,0.98273 0.180813,2.05176 -0.6886,2.82352 -0.526295,0.46718 -0.533466,0.42895 0.319822,1.70565 0.704215,1.05366 0.713649,1.11038 0.18468,1.11038 -0.429185,0 -0.471705,-0.0435 -1.109214,-1.1365 -0.6461,-1.10766 -0.674831,-1.13658 -1.132553,-1.13952 l -0.469632,-0.003 v 1.13952 1.13953 h -0.43833 -0.438326 z m 2.378101,0.19064 c 0.525945,-0.27496 0.752804,-0.67581 0.752804,-1.33018 0,-0.96876 -0.61043,-1.51935 -1.68447,-1.51935 h -0.569779 v 1.51935 1.51937 h 0.569779 c 0.313379,0 0.73263,-0.0851 0.931666,-0.18919 z m 2.756579,-0.19064 v -3.54519 l 0.907962,4.8e-4 c 0.499376,3.9e-4 1.117549,0.0596 1.373708,0.13148 1.311648,0.36829 2.050053,1.87707 1.532051,3.13046 -0.393568,0.95229 -1.016398,1.38179 -2.18251,1.50501 l -0.754561,0.0797 v 1.12149 1.12148 h -0.438325 -0.438325 z m 2.378101,0.19064 c 0.525945,-0.27496 0.752798,-0.67581 0.752798,-1.33018 0,-0.96876 -0.610423,-1.51935 -1.684464,-1.51935 h -0.569785 v 1.51935 1.51937 h 0.569785 c 0.31338,0 0.732629,-0.0851 0.931666,-0.18919 z M 4.7612124,290.9708 c -0.1377584,-0.13927 -0.2504733,-0.31019 -0.2504733,-0.37983 0,-0.16421 0.4637571,-0.63308 0.6261817,-0.63308 0.1624239,0 0.6261771,0.46887 0.6261771,0.63308 0,0.16421 -0.4637532,0.63307 -0.6261771,0.63307 -0.068879,0 -0.2379493,-0.11397 -0.3757084,-0.25324 z"
       id="path3695"
       inkscape:connector-curvature="0" />
  </g>
</svg>
