<?xml version="1.0" encoding="UTF-8" standalone="no"?>
<svg
   xmlns:dc="http://purl.org/dc/elements/1.1/"
   xmlns:cc="http://creativecommons.org/ns#"
   xmlns:rdf="http://www.w3.org/1999/02/22-rdf-syntax-ns#"
   xmlns:svg="http://www.w3.org/2000/svg"
   xmlns="http://www.w3.org/2000/svg"
   xmlns:sodipodi="http://sodipodi.sourceforge.net/DTD/sodipodi-0.dtd"
   xmlns:inkscape="http://www.inkscape.org/namespaces/inkscape"
   id="svg2"
   version="1.1"
   inkscape:version="0.91 r13725"
   sodipodi:docname="logo2.svg"
   width="300"
   height="100">
  <metadata
     id="metadata52">
    <rdf:RDF>
      <cc:Work
         rdf:about="">
        <dc:format>image/svg+xml</dc:format>
        <dc:type
           rdf:resource="http://purl.org/dc/dcmitype/StillImage" />
        <dc:title></dc:title>
      </cc:Work>
    </rdf:RDF>
  </metadata>
  <defs
     id="defs50" />
  <sodipodi:namedview
     pagecolor="#ffffff"
     bordercolor="#666666"
     borderopacity="1"
     objecttolerance="10"
     gridtolerance="10"
     guidetolerance="10"
     inkscape:pageopacity="0"
     inkscape:pageshadow="2"
     inkscape:window-width="1280"
     inkscape:window-height="961"
     id="namedview48"
     showgrid="false"
     inkscape:zoom="2.36"
     inkscape:cx="143.24005"
     inkscape:cy="50"
     inkscape:window-x="-8"
     inkscape:window-y="56"
     inkscape:window-maximized="1"
     inkscape:current-layer="svg2" />
  <g
     transform="matrix(3.1855832,0,0,3.1855832,23.328146,-3279.6741)"
     id="g4"
     style="fill:#ffffff">
    <g
       style="fill-rule:evenodd;fill:#ffffff"
       transform="matrix(0.00691598,0,0,0.00691598,-30.43882,998.74904)"
       id="g6">
      <path
         d="m 5515,7635 c -199,0 -346,-10 -441,-29 -96,-20 -173,-54 -233,-101 -67,-53 -115,-123 -144,-210 -30,-87 -45,-201 -45,-343 l 0,-507 c 0,-155 15,-279 44,-370 29,-92 76,-164 143,-216 59,-47 137,-81 234,-101 97,-20 244,-30 440,-30 l 621,0 c 195,0 342,10 439,30 97,20 175,54 235,101 64,50 111,121 141,211 30,91 45,208 45,352 l 0,519 c 0,145 -15,263 -45,353 -30,90 -77,160 -141,211 -60,47 -136,81 -231,101 -95,19 -242,29 -443,29 l -619,0 z m 729,-1702 -842,0 c -119,0 -212,10 -277,31 -65,21 -115,56 -152,104 -27,35 -46,77 -56,125 -11,48 -17,127 -17,239 l 0,33 0,456 c 0,112 6,192 17,240 10,48 29,89 56,124 37,49 87,83 152,104 65,21 158,31 277,31 l 842,0 c 120,0 212,-10 277,-31 65,-21 116,-55 152,-104 25,-33 43,-73 54,-119 11,-47 16,-119 16,-216 l 0,-63 0,-484 c 0,-98 -5,-170 -16,-216 -11,-46 -29,-85 -54,-119 -36,-48 -87,-83 -152,-104 -65,-21 -157,-31 -277,-31 z m 1142,1679 0,-1315 207,0 0,242 c 49,-92 125,-158 228,-199 103,-41 249,-61 439,-61 272,0 461,35 568,106 106,71 160,194 160,369 l 0,858 -208,0 0,-801 c 0,-78 -6,-135 -19,-170 -13,-35 -36,-64 -68,-87 -37,-26 -97,-46 -181,-60 -83,-14 -187,-21 -310,-21 -221,0 -378,27 -470,81 -93,54 -139,145 -139,272 l 0,786 -207,0 z m 1989,-606 222,0 c -1,8 -1,21 -2,36 -2,36 -3,60 -3,74 0,116 39,197 115,243 77,46 220,69 430,69 l 486,0 c 253,0 418,-25 495,-75 76,-50 115,-145 115,-286 0,-117 -27,-198 -80,-241 -54,-44 -164,-66 -330,-66 l -786,0 c -248,0 -422,-39 -522,-116 -100,-77 -151,-209 -151,-397 0,-191 58,-326 172,-403 115,-77 324,-116 629,-116 l 422,0 c 231,0 392,9 485,27 92,17 165,48 217,91 43,37 74,85 95,144 20,60 30,135 30,225 l 0,53 -222,0 0,-28 c 0,-123 -30,-205 -88,-248 -59,-43 -183,-64 -373,-64 l -635,0 c -193,0 -323,22 -390,66 -67,45 -101,126 -101,244 0,120 33,202 98,247 65,45 201,68 408,68 l 668,0 c 146,0 256,6 330,17 73,12 132,31 177,58 64,37 109,90 137,157 26,67 40,166 40,295 0,207 -55,351 -167,433 -111,81 -312,122 -602,122 l -630,0 c -250,0 -428,-38 -535,-113 -106,-76 -159,-201 -159,-376 0,-24 1,-63 3,-119 0,-10 1,-16 2,-21 z m 2465,-1006 0,-249 210,0 0,249 -210,0 z m 0,1612 0,-1315 210,0 0,1315 -210,0 z m 550,-197 1147,-947 -1101,0 0,-171 1392,0 0,184 -1145,947 1153,0 0,184 -1446,0 0,-197 z m 2700,-1136 c 248,0 420,46 517,137 97,92 146,253 146,483 0,28 0,49 -1,63 0,14 -1,27 -2,38 l -1438,2 0,71 c 0,139 33,235 101,290 67,55 185,83 352,83 l 343,0 c 146,0 253,-18 323,-54 69,-37 104,-93 104,-168 l 0,-14 218,0 0,34 c 0,127 -51,223 -152,288 -101,65 -250,98 -445,98 l -393,0 c -237,0 -406,-44 -508,-131 -102,-88 -153,-233 -153,-436 l 0,-211 c 0,-206 51,-354 152,-442 101,-87 271,-131 509,-131 l 327,0 z m -778,532 1221,0 0,-31 c 0,-118 -30,-199 -90,-243 -60,-44 -180,-66 -358,-66 l -326,0 c -166,0 -282,25 -348,76 -66,52 -99,140 -99,264 z"
         id="path8"
         inkscape:connector-curvature="0"
         style="fill:#ffffff" />
      <path
         d="m 5849,7166 c 12,-22 16,-90 -17,-95 -50,-6 -16,58 -64,52 -17,-3 -27,-17 -22,-34 7,-21 25,-15 39,-22 36,-20 -16,-50 70,-50 68,0 53,14 55,70 2,51 50,45 55,10 4,-27 -12,-91 37,-78 34,10 9,65 24,94 22,18 45,5 49,33 5,30 -24,31 -48,31 -39,0 -133,-8 -161,5 -12,13 -22,75 -58,40 -37,-35 27,-44 41,-56 z m 233,-106 c -12,-22 -9,-88 -6,-117 4,-44 47,-31 88,-31 56,0 78,-12 78,47 0,32 9,83 -11,106 -8,6 -125,15 -149,-5 z m 231,-92 c 55,-27 132,21 80,46 -13,6 -62,7 -77,1 -24,-7 -26,-35 -3,-47 z m -221,-264 c 34,-17 55,32 25,46 -33,15 -59,-30 -25,-46 z m -4,-211 c 37,-25 44,22 43,48 -1,72 38,54 47,46 18,-17 0,-61 14,-88 22,-18 36,-5 46,-25 35,-68 -131,-18 -156,-49 -20,-39 8,-100 -12,-138 -29,-24 -34,5 -49,-37 -20,-57 -74,-24 -55,57 8,30 26,14 49,33 14,28 -3,58 11,85 21,17 49,5 49,37 0,31 -28,19 -49,37 -20,39 14,108 -16,142 -25,12 -105,17 -99,-25 4,-25 27,-17 43,-28 16,-10 16,-31 0,-41 -21,-15 -30,5 -43,-28 -6,-16 -5,-34 -33,-30 -28,4 -17,25 -29,41 -14,18 -22,3 -44,22 -11,21 -11,71 6,90 28,13 59,-3 88,11 19,21 3,21 22,42 29,13 60,-3 89,11 20,23 1,33 30,45 16,6 44,5 34,37 -14,44 -101,-9 -108,40 -4,32 24,27 40,35 20,10 20,36 0,45 -33,16 -104,-8 -140,9 -19,21 -4,30 -23,42 -43,31 -35,-42 -67,-46 -18,-3 -31,8 -31,25 0,41 75,17 51,65 -16,32 -70,-1 -101,25 -16,32 7,63 -17,90 -33,15 -99,-12 -99,32 0,36 83,24 49,68 -15,20 -29,3 -44,22 -12,16 -6,32 13,40 28,11 25,-4 37,29 5,16 7,29 32,25 59,-7 -13,-201 46,-210 67,-9 8,167 43,206 23,10 75,11 94,-5 15,-30 -13,-102 38,-95 45,7 6,69 34,100 22,10 122,10 144,0 19,-21 3,-21 22,-42 21,-10 68,-10 88,0 19,20 5,34 27,44 19,9 39,-2 39,-23 0,-29 -22,-22 -39,-31 -24,-12 -6,-21 -27,-43 -27,-13 -68,2 -88,-11 -12,-8 -14,-21 -8,-33 9,-15 16,-11 29,-16 43,-14 8,-45 47,-50 38,-6 23,32 43,46 16,11 20,0 35,14 15,14 3,18 15,33 21,29 30,-13 50,42 12,31 42,31 53,0 19,-51 19,-14 51,-41 9,-17 12,-69 0,-85 -8,-11 -23,-13 -35,-7 -16,7 -11,15 -16,27 -12,33 -46,28 -53,1 -6,-24 -5,-62 10,-79 22,-10 122,-10 144,0 18,21 6,47 39,47 25,0 37,-28 19,-44 -15,-15 -52,-3 -46,-39 4,-28 27,-15 49,-33 8,-17 11,-63 2,-81 -36,-69 -68,93 -104,25 -10,-21 4,-56 -9,-82 -19,-16 -59,-9 -48,-45 9,-26 42,-26 54,8 10,31 39,40 52,9 8,-16 -1,-21 18,-31 18,-10 14,2 35,-15 7,-9 14,-128 -6,-143 -18,-8 -80,-14 -94,6 -27,37 27,39 44,53 12,23 17,94 -22,94 -46,0 -17,-64 -33,-94 -23,-20 -33,-3 -45,-26 -9,-15 -3,-34 -28,-37 -44,-6 -38,71 -26,94 14,12 78,21 41,56 -17,16 -26,0 -41,19 -7,10 -1,61 -94,41 -23,-6 -32,-32 -11,-46 16,-11 48,-3 43,-37 -4,-28 -27,-15 -49,-33 -14,-27 3,-57 -11,-84 -29,-25 -35,5 -50,-38 -15,-42 -20,-12 -49,-36 -9,-19 -15,-77 6,-91 z"
         id="path10"
         inkscape:connector-curvature="0"
         style="fill:#ffffff" />
      <path
         d="m 5640,6213 c -9,-17 -13,-68 0,-85 14,-19 59,-10 82,-10 28,-1 72,-8 77,22 8,58 -155,6 -105,72 15,20 55,4 49,42 -4,25 -40,35 -53,0 -19,-51 -17,-14 -50,-41 z m -56,-85 c -10,20 -10,65 0,85 21,17 49,6 49,37 0,31 -28,19 -49,37 -19,38 8,99 -11,138 -36,29 -108,-4 -149,16 -25,26 -1,58 -17,90 -29,23 -61,0 -94,16 -19,20 -5,42 -34,46 -50,7 -27,-68 -32,-126 -2,-28 -27,-44 -47,-24 -22,21 9,31 -36,45 -22,7 -42,24 -20,45 23,21 32,-9 47,35 15,42 21,13 50,37 10,20 10,64 0,84 -22,18 -31,5 -44,22 -35,46 55,30 49,73 -4,25 -27,16 -43,28 -21,15 -2,26 -23,41 -16,11 -39,1 -43,28 -6,42 74,37 99,25 19,-20 4,-24 20,-39 15,-15 19,-1 40,-19 14,-27 -2,-57 12,-84 20,-17 17,-6 34,-15 20,-10 11,-15 18,-31 18,-39 32,9 54,-49 17,-44 36,2 54,-48 17,-49 48,-10 54,-49 6,-40 -38,-21 -51,-45 -20,-39 31,-39 58,-39 42,0 176,-8 204,6 15,16 17,68 55,42 21,-13 15,-72 6,-90 -35,-30 -108,3 -149,-16 -19,-21 -25,-106 21,-100 30,5 16,29 32,45 16,16 40,7 45,-15 5,-19 -3,-48 4,-66 7,-21 34,-23 47,-7 19,25 -7,113 11,138 11,15 37,14 46,-4 10,-19 0,-48 5,-70 5,-21 29,-30 46,-14 14,14 8,46 8,66 0,15 -2,56 2,68 8,21 36,23 48,7 11,-16 9,-121 0,-138 -22,-18 -22,-3 -44,-21 -13,-26 1,-61 -10,-82 -35,-68 -67,93 -103,26 -9,-19 -6,-65 2,-82 23,-18 30,-3 44,-21 15,-21 -6,-29 29,-41 33,-12 22,0 33,-32 20,-54 80,0 43,25 -17,11 -39,1 -43,28 -6,42 74,37 99,25 19,-14 12,-134 5,-143 -19,-16 -71,-15 -94,-5 -18,20 -6,47 -38,47 -33,0 -21,-27 -39,-47 -22,-10 -122,-10 -144,0 -14,16 -17,68 -55,42 -11,-7 -20,-76 -58,-40 -38,36 31,47 39,54 36,34 -28,44 -42,55 z"
         id="path12"
         inkscape:connector-curvature="0"
         style="fill:#ffffff" />
      <path
         d="m 5595,6757 c 33,-17 54,32 24,46 -33,15 -59,-30 -24,-46 z m -11,-152 c -15,30 13,94 -33,94 -28,0 -23,-18 -30,-34 -21,-48 -82,9 -38,31 16,8 35,2 39,26 8,48 -68,22 -98,36 -18,20 -23,95 12,100 31,4 27,-18 35,-34 20,-48 81,9 37,31 -17,9 -40,2 -40,30 0,21 21,33 40,24 21,-10 8,-24 26,-45 21,-9 68,-9 89,0 19,22 3,21 22,42 20,10 68,10 88,0 17,-18 17,-68 6,-90 -14,-11 -78,-20 -42,-55 37,-35 46,26 58,39 21,10 68,10 89,0 17,-18 16,-68 5,-89 -21,-19 -25,-4 -41,-19 -15,-15 0,-19 -19,-40 -36,-16 -107,7 -141,-9 -19,-9 -19,-36 0,-45 15,-7 130,8 91,-46 -12,-17 -47,-12 -67,-11 -41,2 -29,9 -41,35 -12,28 -23,8 -47,29 z"
         id="path14"
         inkscape:connector-curvature="0"
         style="fill:#ffffff" />
      <path
         d="m 5192,7086 c 0,-46 23,-68 71,-68 119,0 205,-20 205,68 0,115 21,196 -72,196 -227,0 -204,22 -204,-196 z m -53,186 c 12,55 58,64 124,63 183,0 261,32 260,-121 0,-45 6,-147 -2,-184 -12,-57 -57,-66 -125,-65 -183,0 -260,-32 -260,121 0,43 -5,151 3,186 z"
         id="path16"
         inkscape:connector-curvature="0"
         style="fill:#ffffff" />
      <path
         d="m 5192,6133 c 0,-46 23,-68 71,-68 119,0 205,-20 205,68 0,115 21,196 -72,196 -227,0 -204,22 -204,-196 z m 7,-117 c -63,19 -63,56 -63,128 0,38 -5,152 5,181 17,54 65,57 133,57 193,0 250,27 249,-132 0,-185 28,-239 -138,-238 -43,0 -152,-6 -186,4 z"
         id="path18"
         inkscape:connector-curvature="0"
         style="fill:#ffffff" />
      <path
         d="m 6187,6133 c 0,-46 23,-68 71,-68 119,0 205,-20 205,68 0,115 21,196 -72,196 -227,0 -204,22 -204,-196 z m 7,-117 c -63,19 -63,56 -63,128 1,185 -28,239 138,238 193,0 250,27 249,-132 0,-185 28,-239 -138,-238 -43,0 -152,-6 -186,4 z"
         id="path20"
         inkscape:connector-curvature="0"
         style="fill:#ffffff" />
      <path
         d="m 5308,6121 c -109,33 -57,180 46,152 99,-27 59,-183 -46,-152 z"
         id="path22"
         inkscape:connector-curvature="0"
         style="fill:#ffffff" />
      <path
         d="m 6303,6121 c -109,33 -57,180 46,152 99,-27 59,-183 -46,-152 z"
         id="path24"
         inkscape:connector-curvature="0"
         style="fill:#ffffff" />
      <path
         d="m 5308,7074 c -109,33 -57,180 46,152 99,-28 59,-183 -46,-152 z"
         id="path26"
         inkscape:connector-curvature="0"
         style="fill:#ffffff" />
      <path
         d="m 6457,6531 c -17,13 -71,15 -44,52 14,20 76,14 94,6 19,-14 15,-131 5,-143 -14,-19 -43,-12 -48,11 -6,26 6,49 -7,74 z"
         id="path28"
         inkscape:connector-curvature="0"
         style="fill:#ffffff" />
      <path
         d="m 5579,7049 c 6,27 51,35 55,-10 1,-13 1,-96 -1,-105 -7,-30 -51,-34 -55,9 -1,13 -1,97 1,106 z"
         id="path30"
         inkscape:connector-curvature="0"
         style="fill:#ffffff" />
      <path
         d="m 6313,6439 c -23,11 -21,40 2,47 15,5 66,5 78,-1 21,-10 20,-40 -4,-48 -15,-5 -65,-4 -76,2 z"
         id="path32"
         inkscape:connector-curvature="0"
         style="fill:#ffffff" />
      <path
         d="m 6408,7314 c 5,31 116,36 109,-9 -5,-36 -116,-37 -109,9 z"
         id="path34"
         inkscape:connector-curvature="0"
         style="fill:#ffffff" />
      <path
         d="m 6464,7208 c 4,31 59,28 53,-9 -4,-34 -59,-28 -53,9 z"
         id="path36"
         inkscape:connector-curvature="0"
         style="fill:#ffffff" />
      <path
         d="m 5152,6598 c -34,16 -9,61 25,46 30,-14 10,-63 -25,-46 z"
         id="path38"
         inkscape:connector-curvature="0"
         style="fill:#ffffff" />
      <path
         d="m 5152,6756 c -34,17 -9,62 25,47 30,-14 10,-63 -25,-47 z"
         id="path40"
         inkscape:connector-curvature="0"
         style="fill:#ffffff" />
      <path
         d="m 6147,6968 c -34,17 -9,62 25,47 30,-14 10,-64 -25,-47 z"
         id="path42"
         inkscape:connector-curvature="0"
         style="fill:#ffffff" />
      <path
         d="m 6258,6545 c -34,16 -9,61 25,46 30,-14 9,-63 -25,-46 z"
         id="path44"
         inkscape:connector-curvature="0"
         style="fill:#ffffff" />
      <path
         d="m 5318,6439 c -34,16 -9,61 25,46 30,-14 9,-63 -25,-46 z"
         id="path46"
         inkscape:connector-curvature="0"
         style="fill:#ffffff" />
    </g>
  </g>
</svg>
